<svg width="10" height="10" viewBox="0 0 10 10" fill="none" xmlns="http://www.w3.org/2000/svg">
<g id="star 1" clip-path="url(#clip0_1_206)">
<path id="Vector" d="M9.97406 3.83592C9.90859 3.63343 9.72899 3.48962 9.51651 3.47046L6.63023 3.20839L5.48892 0.537041C5.40477 0.341266 5.21311 0.214539 5.00017 0.214539C4.78723 0.214539 4.59558 0.341266 4.51142 0.537499L3.37011 3.20839L0.483379 3.47046C0.271276 3.49007 0.0921337 3.63343 0.0262903 3.83592C-0.0395531 4.03841 0.0212548 4.26051 0.181705 4.40051L2.36339 6.31386L1.72006 9.14772C1.67298 9.35608 1.75386 9.57146 1.92674 9.69644C2.01967 9.76358 2.12839 9.79776 2.23803 9.79776C2.33256 9.79776 2.42633 9.77227 2.51048 9.72192L5.00017 8.23392L7.48895 9.72192C7.67106 9.83148 7.90064 9.82149 8.07314 9.69644C8.24611 9.57108 8.3269 9.35562 8.27983 9.14772L7.6365 6.31386L9.81818 4.40089C9.97863 4.26051 10.0399 4.03879 9.97406 3.83592Z" fill="#FFC107"/>
</g>
<defs>
<clipPath id="clip0_1_206">
<rect width="10" height="10" fill="white"/>
</clipPath>
</defs>
</svg>
